<?xml version="1.0" encoding="utf-8"?>
<!-- Generator: Adobe Illustrator 24.0.3, SVG Export Plug-In . SVG Version: 6.00 Build 0)  -->
<svg version="1.1" id="Capa_1" xmlns="http://www.w3.org/2000/svg" xmlns:xlink="http://www.w3.org/1999/xlink" x="0px" y="0px"
	 viewBox="0 0 1153.1 297.1" style="enable-background:new 0 0 1153.1 297.1;" xml:space="preserve">
<style type="text/css">
	.st0{fill:#FFFFFF;}
	.st1{fill:#52B788;}
</style>
<title>Logo ecloxs web</title>
<path class="st0" d="M161.4,240.3c-6.6,23.8-28.4,43.6-63.2,43.6c-37.8,0-71.5-27.1-71.5-73.2c0-44.2,32.9-72.4,68.5-72.4
	c42.5,0,68.8,26.2,68.8,70.4c0,4.3-0.2,8.7-0.8,13H67.5c0.8,15.5,14.9,26.5,31.2,26.5c15.2,0,23.8-7.2,27.6-18L161.4,240.3z
	 M123.3,194.7c-0.6-10.5-7.7-23.2-27.6-23.2c-17.7,0-26.5,13-27.3,23.2H123.3z"/>
<path class="st1" d="M185.6,151.1c0-80.5,61.2-135.2,133.4-135.2c77.6,0,111.9,49.9,120.3,87.1L385,120.1c-4-17.9-20.4-48.1-66-48.1
	c-34.6,0-73.6,24.8-73.6,79.1c0,48.5,35.7,76.5,74.3,76.5c44.8,0,62.7-29.9,67.8-48.5l55,15.7c-8.4,35.7-42.7,90.4-122.8,90.4
	C245.4,285.2,185.6,231.7,185.6,151.1z"/>
<path class="st1" d="M474.6,279.8V15.9H530v263.9H474.6z"/>
<path class="st1" d="M758.2,189c0,56.1-41.9,96.2-96.2,96.2c-54,0-96.2-40.1-96.2-96.2S608,93.2,662,93.2
	C716.3,93.2,758.2,132.9,758.2,189z M702.8,189c0-30.6-19.7-44.8-40.8-44.8c-20.8,0-40.8,14.2-40.8,44.8c0,30.3,20,45.2,40.8,45.2
	C683.1,234.2,702.8,219.6,702.8,189L702.8,189z"/>
<path class="st1" d="M828.2,189.4l-63.4-90.8H830l32.4,49.6l31.7-49.6h62l-62.7,88.6c20.4,29.2,44.1,63.4,64.9,92.6h-64.9l-33.5-51
	c-9.8,14.6-23.3,36.1-33.2,51h-60.9L828.2,189.4z"/>
<path class="st1" d="M1018.4,220c0.7,12.4,9.5,24.4,28.4,24.4c14.2,0,21.1-7.7,21.1-15.7c0-6.6-4.4-12-17.9-14.9l-20.8-4.7
	c-38.6-8.4-53.9-30.2-53.9-55.8c0-33.2,29.2-60.1,69.6-60.1c52.5,0,70.7,32.8,72.5,54l-45.9,8.4c-1.4-12-9.1-22.2-25.9-22.2
	c-10.6,0-19.7,6.2-19.7,15.7c0,7.6,6.2,12,14.2,13.5l24,4.7c37.6,7.7,55.8,30.3,55.8,56.9c0,31-23.7,61.2-72.2,61.2
	c-56.9,0-75.1-36.8-76.5-56.9L1018.4,220z"/>
<circle class="st1" cx="662" cy="189.2" r="98"/>
<path class="st0" d="M707.7,202.9h-42.5c-2.2,0-4.4-1-5.8-2.7l-49-59c-2.8-3.1-2.5-7.9,0.6-10.7c3.1-2.8,7.9-2.5,10.7,0.6
	c0.1,0.1,0.2,0.3,0.3,0.4l46.8,56.2h38.9c4.2,0,7.6,3.4,7.6,7.6S712,202.8,707.7,202.9C707.8,202.8,707.8,202.8,707.7,202.9
	L707.7,202.9z"/>
</svg>
