<svg id="Capa_1" data-name="Capa 1" xmlns="http://www.w3.org/2000/svg" viewBox="0 0 1000 1000"><defs><style>.cls-1{fill:#1b4332;}.cls-1,.cls-2{opacity:0.38;}.cls-2{fill:#457c61;}</style></defs><title>reciclar-fondo</title><path class="cls-1" d="M306.56,638.87c11.25-30.58,27-58.53,48.69-83C385.33,522.06,421.77,498,464.92,484a228.1,228.1,0,0,1,44.54-9.94c4.55-.52,5.8-2.48,5.78-6.76-.11-33.8-.19-67.61,0-101.41,0-6.57-3.91-6.61-8.28-6.62-25.53,0-51.06.34-76.59-.09C359.69,358,305.33,327,266.91,267.91c-24.59-37.8-31.16-80-29.45-124.21.23-5.9,3.67-4.77,7-4.78,29.53,0,59.07-.19,88.61,0,21.5.17,43.05-1.21,64.51,1.36Q461,147.9,507.78,191.48c1.1,1,2.14,2.11,3.27,3.1s2.31,3,4.31,2.42c2.25-.67,1.41-2.91,1.69-4.5,8.58-49.45,30.86-91,70.38-122.7,27.35-21.92,58.5-35.09,93-40.59,1.59-.26,3.66.48,4.39-1.87H847.09c1.07,32.4.15,64.61-12.24,95.21C806.38,192.92,755,235.12,679.78,247.15c-31.79,5.08-63.94,1.37-95.91,2.2-13.67.36-13.68.06-13.68,13.81,0,66.58.1,133.17-.14,199.75,0,7.1,1.24,9.83,9.22,11.13,71.12,11.6,127.36,47.4,169.15,106.05-5.56,10-11.32,19.93-16.63,30.08Q682.28,704.79,633,799.54c-2.49,4.8-5.44,6.6-11,6.57-55.56-.35-111.12-.37-166.67-.47-10,0-20-.24-30,.09-4.85.17-6.5-1.19-6.37-6.24.34-13.51.47-27,0-40.55-.24-6.44,1.24-8.39,8.1-8.36,53.8.19,107.6-.2,161.4-.08,5.87,0,8.81-1.81,11.47-7,16.78-32.39,33.94-64.58,50.93-96.85,3.78-7.19,3.7-7.25-4.89-7.27q-110.74-.23-221.48-.42Q365.5,638.9,306.56,638.87Z"/><path class="cls-2" d="M306.56,638.87q58.94.06,117.87.13,110.74.18,221.48.42c8.59,0,8.67.08,4.89,7.27-17,32.27-34.15,64.46-50.93,96.85-2.66,5.15-5.6,7-11.47,7-53.8-.12-107.6.27-161.4.08-6.86,0-8.34,1.92-8.1,8.36.51,13.5.38,27,0,40.55-.13,5,1.52,6.41,6.37,6.24,10-.33,20-.11,30-.09,55.55.1,111.11.12,166.67.47,5.56,0,8.51-1.77,11-6.57q49.25-94.77,98.78-189.37c5.31-10.15,11.07-20.06,16.63-30.08,9.71-8.13,17.3-18.48,27.73-25.91,22-15.65,46.17-24.51,73.18-25.06,14.77-.3,29.54.06,44.31-.14,5.39-.07,6.69,1.07,3.91,6.3-14.93,28-29.62,56.19-44.37,84.32Q803.71,714,754.25,808.33c-17.78,33.88-35.83,67.62-53.41,101.6-2.8,5.41-5.89,7.42-12.05,7.41-108.39-.24-216.8.14-325.19-.69-15.27-.12-25.84,5.34-36.41,14.67-15.34,13.52-31.33,26.31-46.95,39.52-4.43,3.74-7.14,1-10.13-2-21.56-21.64-43.47-42.94-64.67-64.93-33.18-34.42-67-68.19-100.85-101.94-4.69-4.68-5-7.24.65-11.59,8.29-6.37,15.65-13.94,23.35-21.08q42.89-39.74,85.73-79.52c17.06-15.76,34.34-31.28,51.36-47.08a12.44,12.44,0,0,1,9.35-3.64C285.54,639.19,296.05,639,306.56,638.87Z"/></svg>